<svg width="268" height="61" viewBox="0 0 268 61" fill="none" xmlns="http://www.w3.org/2000/svg">
<path d="M54.4558 60.123L43.7756 60.1895L19.4607 18.4067L19.7917 7.84991L54.4558 60.123Z" fill="#3E9BF1"/>
<path d="M2.29042 29.5834L0.881403 37.4308L19.2754 18.632L20.0765 7.84813L2.29042 29.5834Z" fill="#AAD0F3"/>
<path d="M38.5679 0.409667L37.7912 15.6286L11.4573 60.1648L0.189863 60.2349L38.5679 0.409667Z" fill="#061FFF"/>
<path d="M38.097 0.756221L37.5638 15.2298L66.0318 59.0912L69.7371 58.5546L74.5119 58.2537L38.097 0.756221Z" fill="#0A65B9"/>
<path d="M75.7275 60.2423L70.9697 53.0964L55.3174 53.1939L56.0525 56.2339L57.3038 60.357L75.7275 60.2423Z" fill="#0A65B9"/>
<path d="M9.12196 60.37L16.615 52.1912L39.4114 52.1226L43.8967 60.2654L9.12196 60.37Z" fill="#0A65B9"/>
<path d="M96.3672 30.7852H91.1406V45H87.625V30.7852H82.4688V27.9375H96.3672V30.7852ZM101.465 33.7031C102.363 32.625 103.492 32.0859 104.852 32.0859C107.602 32.0859 108.996 33.6836 109.035 36.8789V45H105.648V36.9727C105.648 36.2461 105.492 35.7109 105.18 35.3672C104.867 35.0156 104.348 34.8398 103.621 34.8398C102.629 34.8398 101.91 35.2227 101.465 35.9883V45H98.0781V27H101.465V33.7031ZM117.426 45.2344C115.566 45.2344 114.051 44.6641 112.879 43.5234C111.715 42.3828 111.133 40.8633 111.133 38.9648V38.6367C111.133 37.3633 111.379 36.2266 111.871 35.2266C112.363 34.2188 113.059 33.4453 113.957 32.9062C114.863 32.3594 115.895 32.0859 117.051 32.0859C118.785 32.0859 120.148 32.6328 121.141 33.7266C122.141 34.8203 122.641 36.3711 122.641 38.3789V39.7617H114.566C114.676 40.5898 115.004 41.2539 115.551 41.7539C116.105 42.2539 116.805 42.5039 117.648 42.5039C118.953 42.5039 119.973 42.0312 120.707 41.0859L122.371 42.9492C121.863 43.668 121.176 44.2305 120.309 44.6367C119.441 45.0352 118.48 45.2344 117.426 45.2344ZM117.039 34.8281C116.367 34.8281 115.82 35.0547 115.398 35.5078C114.984 35.9609 114.719 36.6094 114.602 37.4531H119.312V37.1836C119.297 36.4336 119.094 35.8555 118.703 35.4492C118.312 35.0352 117.758 34.8281 117.039 34.8281ZM130.773 45V27.9375H136.023C137.523 27.9375 138.863 28.2773 140.043 28.957C141.23 29.6289 142.156 30.5898 142.82 31.8398C143.484 33.082 143.816 34.4961 143.816 36.082V36.8672C143.816 38.4531 143.488 39.8633 142.832 41.0977C142.184 42.332 141.266 43.2891 140.078 43.9688C138.891 44.6484 137.551 44.9922 136.059 45H130.773ZM134.289 30.7852V42.1758H135.988C137.363 42.1758 138.414 41.7266 139.141 40.8281C139.867 39.9297 140.238 38.6445 140.254 36.9727V36.0703C140.254 34.3359 139.895 33.0234 139.176 32.1328C138.457 31.2344 137.406 30.7852 136.023 30.7852H134.289ZM151.996 45.2344C150.137 45.2344 148.621 44.6641 147.449 43.5234C146.285 42.3828 145.703 40.8633 145.703 38.9648V38.6367C145.703 37.3633 145.949 36.2266 146.441 35.2266C146.934 34.2188 147.629 33.4453 148.527 32.9062C149.434 32.3594 150.465 32.0859 151.621 32.0859C153.355 32.0859 154.719 32.6328 155.711 33.7266C156.711 34.8203 157.211 36.3711 157.211 38.3789V39.7617H149.137C149.246 40.5898 149.574 41.2539 150.121 41.7539C150.676 42.2539 151.375 42.5039 152.219 42.5039C153.523 42.5039 154.543 42.0312 155.277 41.0859L156.941 42.9492C156.434 43.668 155.746 44.2305 154.879 44.6367C154.012 45.0352 153.051 45.2344 151.996 45.2344ZM151.609 34.8281C150.938 34.8281 150.391 35.0547 149.969 35.5078C149.555 35.9609 149.289 36.6094 149.172 37.4531H153.883V37.1836C153.867 36.4336 153.664 35.8555 153.273 35.4492C152.883 35.0352 152.328 34.8281 151.609 34.8281ZM162.262 32.3203L162.367 33.7852C163.273 32.6523 164.488 32.0859 166.012 32.0859C167.355 32.0859 168.355 32.4805 169.012 33.2695C169.668 34.0586 170.004 35.2383 170.02 36.8086V45H166.633V36.8906C166.633 36.1719 166.477 35.6523 166.164 35.332C165.852 35.0039 165.332 34.8398 164.605 34.8398C163.652 34.8398 162.938 35.2461 162.461 36.0586V45H159.074V32.3203H162.262ZM179.945 45C179.789 44.6953 179.676 44.3164 179.605 43.8633C178.785 44.7773 177.719 45.2344 176.406 45.2344C175.164 45.2344 174.133 44.875 173.312 44.1562C172.5 43.4375 172.094 42.5312 172.094 41.4375C172.094 40.0938 172.59 39.0625 173.582 38.3438C174.582 37.625 176.023 37.2617 177.906 37.2539H179.465V36.5273C179.465 35.9414 179.312 35.4727 179.008 35.1211C178.711 34.7695 178.238 34.5938 177.59 34.5938C177.02 34.5938 176.57 34.7305 176.242 35.0039C175.922 35.2773 175.762 35.6523 175.762 36.1289H172.375C172.375 35.3945 172.602 34.7148 173.055 34.0898C173.508 33.4648 174.148 32.9766 174.977 32.625C175.805 32.2656 176.734 32.0859 177.766 32.0859C179.328 32.0859 180.566 32.4805 181.48 33.2695C182.402 34.0508 182.863 35.1523 182.863 36.5742V42.0703C182.871 43.2734 183.039 44.1836 183.367 44.8008V45H179.945ZM177.145 42.6445C177.645 42.6445 178.105 42.5352 178.527 42.3164C178.949 42.0898 179.262 41.7891 179.465 41.4141V39.2344H178.199C176.504 39.2344 175.602 39.8203 175.492 40.9922L175.48 41.1914C175.48 41.6133 175.629 41.9609 175.926 42.2344C176.223 42.5078 176.629 42.6445 177.145 42.6445ZM189.039 45H185.641V27H189.039V45ZM195.414 45H192.016V32.3203H195.414V45ZM191.816 29.0391C191.816 28.5312 191.984 28.1133 192.32 27.7852C192.664 27.457 193.129 27.293 193.715 27.293C194.293 27.293 194.754 27.457 195.098 27.7852C195.441 28.1133 195.613 28.5312 195.613 29.0391C195.613 29.5547 195.438 29.9766 195.086 30.3047C194.742 30.6328 194.285 30.7969 193.715 30.7969C193.145 30.7969 192.684 30.6328 192.332 30.3047C191.988 29.9766 191.816 29.5547 191.816 29.0391ZM217.914 42.8438C217.281 43.6016 216.387 44.1914 215.23 44.6133C214.074 45.0273 212.793 45.2344 211.387 45.2344C209.91 45.2344 208.613 44.9141 207.496 44.2734C206.387 43.625 205.527 42.6875 204.918 41.4609C204.316 40.2344 204.008 38.793 203.992 37.1367V35.9766C203.992 34.2734 204.277 32.8008 204.848 31.5586C205.426 30.3086 206.254 29.3555 207.332 28.6992C208.418 28.0352 209.688 27.7031 211.141 27.7031C213.164 27.7031 214.746 28.1875 215.887 29.1562C217.027 30.1172 217.703 31.5195 217.914 33.3633H214.492C214.336 32.3867 213.988 31.6719 213.449 31.2188C212.918 30.7656 212.184 30.5391 211.246 30.5391C210.051 30.5391 209.141 30.9883 208.516 31.8867C207.891 32.7852 207.574 34.1211 207.566 35.8945V36.9844C207.566 38.7734 207.906 40.125 208.586 41.0391C209.266 41.9531 210.262 42.4102 211.574 42.4102C212.895 42.4102 213.836 42.1289 214.398 41.5664V38.625H211.199V36.0352H217.914V42.8438ZM227.676 35.4961C227.215 35.4336 226.809 35.4023 226.457 35.4023C225.176 35.4023 224.336 35.8359 223.938 36.7031V45H220.551V32.3203H223.75L223.844 33.832C224.523 32.668 225.465 32.0859 226.668 32.0859C227.043 32.0859 227.395 32.1367 227.723 32.2383L227.676 35.4961ZM228.367 38.543C228.367 37.2852 228.609 36.1641 229.094 35.1797C229.578 34.1953 230.273 33.4336 231.18 32.8945C232.094 32.3555 233.152 32.0859 234.355 32.0859C236.066 32.0859 237.461 32.6094 238.539 33.6562C239.625 34.7031 240.23 36.125 240.355 37.9219L240.379 38.7891C240.379 40.7344 239.836 42.2969 238.75 43.4766C237.664 44.6484 236.207 45.2344 234.379 45.2344C232.551 45.2344 231.09 44.6484 229.996 43.4766C228.91 42.3047 228.367 40.7109 228.367 38.6953V38.543ZM231.754 38.7891C231.754 39.9922 231.98 40.9141 232.434 41.5547C232.887 42.1875 233.535 42.5039 234.379 42.5039C235.199 42.5039 235.84 42.1914 236.301 41.5664C236.762 40.9336 236.992 39.9258 236.992 38.543C236.992 37.3633 236.762 36.4492 236.301 35.8008C235.84 35.1523 235.191 34.8281 234.355 34.8281C233.527 34.8281 232.887 35.1523 232.434 35.8008C231.98 36.4414 231.754 37.4375 231.754 38.7891ZM250.059 43.7109C249.223 44.7266 248.066 45.2344 246.59 45.2344C245.23 45.2344 244.191 44.8438 243.473 44.0625C242.762 43.2812 242.398 42.1367 242.383 40.6289V32.3203H245.77V40.5117C245.77 41.832 246.371 42.4922 247.574 42.4922C248.723 42.4922 249.512 42.0938 249.941 41.2969V32.3203H253.34V45H250.152L250.059 43.7109ZM267.309 38.7773C267.309 40.7305 266.863 42.2969 265.973 43.4766C265.09 44.6484 263.895 45.2344 262.387 45.2344C261.105 45.2344 260.07 44.7891 259.281 43.8984V49.875H255.895V32.3203H259.035L259.152 33.5625C259.973 32.5781 261.043 32.0859 262.363 32.0859C263.926 32.0859 265.141 32.6641 266.008 33.8203C266.875 34.9766 267.309 36.5703 267.309 38.6016V38.7773ZM263.922 38.5312C263.922 37.3516 263.711 36.4414 263.289 35.8008C262.875 35.1602 262.27 34.8398 261.473 34.8398C260.41 34.8398 259.68 35.2461 259.281 36.0586V41.25C259.695 42.0859 260.434 42.5039 261.496 42.5039C263.113 42.5039 263.922 41.1797 263.922 38.5312Z" fill="white"/>
</svg>
