<svg width="181" height="35" viewBox="0 0 181 35" fill="none" xmlns="http://www.w3.org/2000/svg">
<path d="M26.374 33.4528L21.2856 33.489L9.70109 10.7426L9.8588 4.99546L26.374 33.4528Z" fill="#3E9BF1"/>
<path d="M1.52055 16.8271L0.84924 21.0993L9.61282 10.8652L9.99449 4.9945L1.52055 16.8271Z" fill="#AAD0F3"/>
<path d="M18.8044 0.945012L18.4344 9.23017L5.88796 33.4756L0.519763 33.5138L18.8044 0.945012Z" fill="#061FFF"/>
<path d="M18.5801 1.13367L18.3261 9.01304L31.8892 32.8911L33.6546 32.599L35.9294 32.4352L18.5801 1.13367Z" fill="#0A65B9"/>
<path d="M36.5086 33.5178L34.2419 29.6276L26.7845 29.6806L27.1347 31.3356L27.7309 33.5802L36.5086 33.5178Z" fill="#0A65B9"/>
<path d="M4.77535 33.5873L8.34532 29.1348L19.2063 29.0975L21.3433 33.5304L4.77535 33.5873Z" fill="#0A65B9"/>
<path d="M52.7754 20.3389H48.8555V31H46.2188V20.3389H42.3516V18.2031H52.7754V20.3389ZM56.5986 22.5273C57.2725 21.7188 58.1191 21.3145 59.1387 21.3145C61.2012 21.3145 62.2471 22.5127 62.2764 24.9092V31H59.7363V24.9795C59.7363 24.4346 59.6191 24.0332 59.3848 23.7754C59.1504 23.5117 58.7607 23.3799 58.2158 23.3799C57.4717 23.3799 56.9326 23.667 56.5986 24.2412V31H54.0586V17.5H56.5986V22.5273ZM68.5693 31.1758C67.1748 31.1758 66.0381 30.748 65.1592 29.8926C64.2861 29.0371 63.8496 27.8975 63.8496 26.4736V26.2275C63.8496 25.2725 64.0342 24.4199 64.4033 23.6699C64.7725 22.9141 65.2939 22.334 65.9678 21.9297C66.6475 21.5195 67.4209 21.3145 68.2881 21.3145C69.5889 21.3145 70.6113 21.7246 71.3555 22.5449C72.1055 23.3652 72.4805 24.5283 72.4805 26.0342V27.0713H66.4248C66.5068 27.6924 66.7529 28.1904 67.1631 28.5654C67.5791 28.9404 68.1035 29.1279 68.7363 29.1279C69.7148 29.1279 70.4795 28.7734 71.0303 28.0645L72.2783 29.4619C71.8975 30.001 71.3818 30.4229 70.7314 30.7275C70.0811 31.0264 69.3604 31.1758 68.5693 31.1758ZM68.2793 23.3711C67.7754 23.3711 67.3652 23.541 67.0488 23.8809C66.7383 24.2207 66.5391 24.707 66.4512 25.3398H69.9844V25.1377C69.9727 24.5752 69.8203 24.1416 69.5273 23.8369C69.2344 23.5264 68.8184 23.3711 68.2793 23.3711ZM78.5801 31V18.2031H82.5176C83.6426 18.2031 84.6475 18.458 85.5322 18.9678C86.4229 19.4717 87.1172 20.1924 87.6152 21.1299C88.1133 22.0615 88.3623 23.1221 88.3623 24.3115V24.9004C88.3623 26.0898 88.1162 27.1475 87.624 28.0732C87.1377 28.999 86.4492 29.7168 85.5586 30.2266C84.668 30.7363 83.6631 30.9941 82.5439 31H78.5801ZM81.2168 20.3389V28.8818H82.4912C83.5225 28.8818 84.3105 28.5449 84.8555 27.8711C85.4004 27.1973 85.6787 26.2334 85.6904 24.9795V24.3027C85.6904 23.002 85.4209 22.0176 84.8818 21.3496C84.3428 20.6758 83.5547 20.3389 82.5176 20.3389H81.2168ZM94.4971 31.1758C93.1025 31.1758 91.9658 30.748 91.0869 29.8926C90.2139 29.0371 89.7773 27.8975 89.7773 26.4736V26.2275C89.7773 25.2725 89.9619 24.4199 90.3311 23.6699C90.7002 22.9141 91.2217 22.334 91.8955 21.9297C92.5752 21.5195 93.3486 21.3145 94.2158 21.3145C95.5166 21.3145 96.5391 21.7246 97.2832 22.5449C98.0332 23.3652 98.4082 24.5283 98.4082 26.0342V27.0713H92.3525C92.4346 27.6924 92.6807 28.1904 93.0908 28.5654C93.5068 28.9404 94.0312 29.1279 94.6641 29.1279C95.6426 29.1279 96.4072 28.7734 96.958 28.0645L98.2061 29.4619C97.8252 30.001 97.3096 30.4229 96.6592 30.7275C96.0088 31.0264 95.2881 31.1758 94.4971 31.1758ZM94.207 23.3711C93.7031 23.3711 93.293 23.541 92.9766 23.8809C92.666 24.2207 92.4668 24.707 92.3789 25.3398H95.9121V25.1377C95.9004 24.5752 95.748 24.1416 95.4551 23.8369C95.1621 23.5264 94.7461 23.3711 94.207 23.3711ZM102.196 21.4902L102.275 22.5889C102.955 21.7393 103.866 21.3145 105.009 21.3145C106.017 21.3145 106.767 21.6104 107.259 22.2021C107.751 22.7939 108.003 23.6787 108.015 24.8564V31H105.475V24.918C105.475 24.3789 105.357 23.9893 105.123 23.749C104.889 23.5029 104.499 23.3799 103.954 23.3799C103.239 23.3799 102.703 23.6846 102.346 24.2939V31H99.8057V21.4902H102.196ZM115.459 31C115.342 30.7715 115.257 30.4873 115.204 30.1475C114.589 30.833 113.789 31.1758 112.805 31.1758C111.873 31.1758 111.1 30.9062 110.484 30.3672C109.875 29.8281 109.57 29.1484 109.57 28.3281C109.57 27.3203 109.942 26.5469 110.687 26.0078C111.437 25.4688 112.518 25.1963 113.93 25.1904H115.099V24.6455C115.099 24.2061 114.984 23.8545 114.756 23.5908C114.533 23.3271 114.179 23.1953 113.692 23.1953C113.265 23.1953 112.928 23.2979 112.682 23.5029C112.441 23.708 112.321 23.9893 112.321 24.3467H109.781C109.781 23.7959 109.951 23.2861 110.291 22.8174C110.631 22.3486 111.111 21.9824 111.732 21.7188C112.354 21.4492 113.051 21.3145 113.824 21.3145C114.996 21.3145 115.925 21.6104 116.61 22.2021C117.302 22.7881 117.647 23.6143 117.647 24.6807V28.8027C117.653 29.7051 117.779 30.3877 118.025 30.8506V31H115.459ZM113.358 29.2334C113.733 29.2334 114.079 29.1514 114.396 28.9873C114.712 28.8174 114.946 28.5918 115.099 28.3105V26.6758H114.149C112.878 26.6758 112.201 27.1152 112.119 27.9941L112.11 28.1436C112.11 28.46 112.222 28.7207 112.444 28.9258C112.667 29.1309 112.972 29.2334 113.358 29.2334ZM122.279 31H119.73V17.5H122.279V31ZM127.061 31H124.512V21.4902H127.061V31ZM124.362 19.0293C124.362 18.6484 124.488 18.335 124.74 18.0889C124.998 17.8428 125.347 17.7197 125.786 17.7197C126.22 17.7197 126.565 17.8428 126.823 18.0889C127.081 18.335 127.21 18.6484 127.21 19.0293C127.21 19.416 127.078 19.7324 126.814 19.9785C126.557 20.2246 126.214 20.3477 125.786 20.3477C125.358 20.3477 125.013 20.2246 124.749 19.9785C124.491 19.7324 124.362 19.416 124.362 19.0293ZM143.936 29.3828C143.461 29.9512 142.79 30.3936 141.923 30.71C141.056 31.0205 140.095 31.1758 139.04 31.1758C137.933 31.1758 136.96 30.9355 136.122 30.4551C135.29 29.9688 134.646 29.2656 134.188 28.3457C133.737 27.4258 133.506 26.3447 133.494 25.1025V24.2324C133.494 22.9551 133.708 21.8506 134.136 20.9189C134.569 19.9814 135.19 19.2666 135.999 18.7744C136.813 18.2764 137.766 18.0273 138.855 18.0273C140.373 18.0273 141.56 18.3906 142.415 19.1172C143.271 19.8379 143.777 20.8896 143.936 22.2725H141.369C141.252 21.54 140.991 21.0039 140.587 20.6641C140.188 20.3242 139.638 20.1543 138.935 20.1543C138.038 20.1543 137.355 20.4912 136.887 21.165C136.418 21.8389 136.181 22.8408 136.175 24.1709V24.9883C136.175 26.3301 136.43 27.3438 136.939 28.0293C137.449 28.7148 138.196 29.0576 139.181 29.0576C140.171 29.0576 140.877 28.8467 141.299 28.4248V26.2188H138.899V24.2764H143.936V29.3828ZM151.257 23.8721C150.911 23.8252 150.606 23.8018 150.343 23.8018C149.382 23.8018 148.752 24.127 148.453 24.7773V31H145.913V21.4902H148.312L148.383 22.624C148.893 21.751 149.599 21.3145 150.501 21.3145C150.782 21.3145 151.046 21.3525 151.292 21.4287L151.257 23.8721ZM151.775 26.1572C151.775 25.2139 151.957 24.373 152.32 23.6348C152.684 22.8965 153.205 22.3252 153.885 21.9209C154.57 21.5166 155.364 21.3145 156.267 21.3145C157.55 21.3145 158.596 21.707 159.404 22.4922C160.219 23.2773 160.673 24.3438 160.767 25.6914L160.784 26.3418C160.784 27.8008 160.377 28.9727 159.562 29.8574C158.748 30.7363 157.655 31.1758 156.284 31.1758C154.913 31.1758 153.817 30.7363 152.997 29.8574C152.183 28.9785 151.775 27.7832 151.775 26.2715V26.1572ZM154.315 26.3418C154.315 27.2441 154.485 27.9355 154.825 28.416C155.165 28.8906 155.651 29.1279 156.284 29.1279C156.899 29.1279 157.38 28.8936 157.726 28.4248C158.071 27.9502 158.244 27.1943 158.244 26.1572C158.244 25.2725 158.071 24.5869 157.726 24.1006C157.38 23.6143 156.894 23.3711 156.267 23.3711C155.646 23.3711 155.165 23.6143 154.825 24.1006C154.485 24.5811 154.315 25.3281 154.315 26.3418ZM168.044 30.0332C167.417 30.7949 166.55 31.1758 165.442 31.1758C164.423 31.1758 163.644 30.8828 163.104 30.2969C162.571 29.7109 162.299 28.8525 162.287 27.7217V21.4902H164.827V27.6338C164.827 28.624 165.278 29.1191 166.181 29.1191C167.042 29.1191 167.634 28.8203 167.956 28.2227V21.4902H170.505V31H168.114L168.044 30.0332ZM180.981 26.333C180.981 27.7979 180.647 28.9727 179.979 29.8574C179.317 30.7363 178.421 31.1758 177.29 31.1758C176.329 31.1758 175.553 30.8418 174.961 30.1738V34.6562H172.421V21.4902H174.776L174.864 22.4219C175.479 21.6836 176.282 21.3145 177.272 21.3145C178.444 21.3145 179.355 21.748 180.006 22.6152C180.656 23.4824 180.981 24.6777 180.981 26.2012V26.333ZM178.441 26.1484C178.441 25.2637 178.283 24.5811 177.967 24.1006C177.656 23.6201 177.202 23.3799 176.604 23.3799C175.808 23.3799 175.26 23.6846 174.961 24.2939V28.1875C175.271 28.8145 175.825 29.1279 176.622 29.1279C177.835 29.1279 178.441 28.1348 178.441 26.1484Z" fill="white"/>
</svg>
